<?xml version="1.0" standalone="no"?>
<!DOCTYPE svg PUBLIC "-//W3C//DTD SVG 20010904//EN"
 "http://www.w3.org/TR/2001/REC-SVG-20010904/DTD/svg10.dtd">
<svg version="1.0" xmlns="http://www.w3.org/2000/svg"
 width="700.000000pt" height="700.000000pt" viewBox="0 0 700.000000 700.000000"
 preserveAspectRatio="xMidYMid meet">
<metadata>
Created by potrace 1.14, written by Peter Selinger 2001-2017
</metadata>
<g transform="translate(0.000000,700.000000) scale(0.100000,-0.100000)"
fill="#000000" stroke="none">
<path d="M1236 5908 c-57 -12 -91 -41 -116 -100 -22 -50 -23 -65 -23 -278 0
-124 3 -418 7 -655 7 -493 10 -974 5 -980 -2 -2 -60 -7 -129 -10 -69 -4 -141
-9 -160 -10 -19 -1 -84 -5 -145 -9 -60 -4 -126 -8 -145 -11 -19 -2 -59 -7 -89
-10 -62 -8 -69 -9 -136 -26 -27 -6 -66 -20 -86 -30 -37 -18 -88 -71 -90 -92
-1 -7 -3 -23 -4 -37 -7 -71 56 -195 191 -375 99 -131 107 -141 160 -182 98
-77 223 -108 474 -119 74 -4 137 -8 140 -11 2 -2 3 -86 1 -186 -7 -322 -6
-820 2 -902 13 -147 36 -297 57 -374 5 -20 11 -47 14 -61 8 -43 47 -163 69
-210 93 -202 193 -202 284 0 56 126 156 459 178 594 3 17 8 42 10 56 3 14 8
36 10 50 3 14 8 41 11 60 2 19 9 58 14 85 9 50 44 304 55 400 3 28 8 73 12
100 4 28 7 59 8 70 7 82 17 185 20 210 3 17 7 59 11 95 3 36 7 66 8 66 0 1 35
5 76 8 41 4 89 8 106 11 17 2 64 6 105 10 41 3 85 8 99 10 14 2 50 7 80 10 30
3 68 8 83 11 l28 4 -7 -307 c-9 -431 -11 -757 -3 -833 4 -36 10 -94 13 -130 8
-89 15 -140 23 -175 3 -16 7 -40 9 -53 4 -34 24 -118 51 -212 54 -185 135
-304 199 -293 16 3 37 13 48 22 113 98 266 610 331 1111 3 25 8 56 10 70 5 29
12 78 20 165 4 33 8 71 10 85 6 43 15 123 20 175 9 103 17 181 20 205 2 14 7
61 10 105 7 79 14 137 18 142 1 1 25 5 52 8 28 3 61 8 75 10 14 3 51 7 83 10
32 4 66 8 76 10 10 2 42 6 72 10 30 3 61 8 69 10 8 2 42 7 76 10 l61 6 -5
-213 c-8 -325 -8 -1105 0 -1178 16 -136 32 -243 42 -278 3 -9 7 -33 10 -52 3
-19 19 -82 36 -139 76 -256 170 -350 259 -259 37 38 77 118 121 243 17 50 35
101 40 115 10 27 76 280 84 320 3 14 14 72 26 130 11 58 23 121 26 140 3 19 9
60 14 90 27 166 59 427 75 605 3 33 7 80 10 105 5 48 13 140 19 205 4 38 16
188 20 247 1 15 5 30 8 34 7 6 409 79 538 97 8 1 14 -3 13 -8 -4 -25 -16 -828
-17 -1120 -1 -281 8 -536 18 -554 2 -3 7 -32 10 -64 4 -32 9 -64 11 -70 2 -7
7 -29 10 -51 8 -60 53 -230 77 -294 35 -95 88 -175 130 -195 34 -17 39 -17 67
-3 39 20 80 81 118 176 97 236 189 603 237 940 2 19 9 69 15 110 13 91 19 138
27 210 3 30 7 66 9 79 2 13 7 58 11 100 3 42 8 83 9 92 2 8 6 55 10 105 4 49
8 104 10 122 2 18 7 76 10 130 3 53 8 111 10 127 2 17 7 82 11 145 9 158 9
154 17 166 3 6 19 14 34 17 16 4 62 14 103 23 41 8 86 18 100 20 55 11 279 64
345 82 257 72 406 174 388 264 -11 57 -109 121 -253 167 -72 23 -248 58 -325
66 -27 2 -77 7 -110 10 -33 4 -96 8 -140 10 -44 2 -87 4 -95 4 -14 1 -16 46
-15 394 0 351 -5 489 -20 567 -39 201 -96 309 -270 505 -82 93 -83 94 -142
132 -147 93 -301 69 -365 -57 -47 -93 -47 -96 -33 -1068 6 -443 5 -523 -6
-521 -11 2 -111 -5 -224 -16 -50 -5 -213 -18 -244 -19 -34 -1 -34 0 -33 39 0
22 4 130 9 240 19 510 3 808 -48 924 -10 24 -19 48 -19 53 0 28 -168 238 -284
354 -107 107 -229 150 -335 118 -56 -17 -92 -47 -120 -100 -45 -86 -44 -61
-25 -1311 4 -322 3 -393 -8 -394 -7 0 -21 -2 -31 -4 -9 -2 -54 -6 -100 -10
-45 -3 -95 -8 -112 -9 -16 -2 -66 -6 -110 -10 -44 -4 -97 -9 -117 -12 -34 -4
-38 -3 -39 18 -1 13 -1 26 -1 29 1 3 3 60 6 125 24 521 24 843 0 999 -27 182
-70 260 -260 473 -151 168 -239 223 -350 215 -115 -8 -174 -63 -211 -198 -11
-40 -12 -146 -7 -555 3 -278 7 -657 8 -843 l1 -339 -65 -4 c-36 -2 -94 -6
-130 -9 -36 -2 -112 -7 -170 -11 -58 -3 -116 -6 -130 -7 l-25 -2 1 90 c1 50 5
185 10 300 16 388 11 824 -11 934 -18 94 -56 186 -104 251 -46 63 -185 223
-246 283 -78 76 -238 126 -339 105z"/>
</g>
</svg>
