<?xml version="1.0" encoding="UTF-8"?>
<svg width="512" height="512" version="1.1" viewBox="0 0 512 512" xmlns="http://www.w3.org/2000/svg" xmlns:cc="http://creativecommons.org/ns#" xmlns:dc="http://purl.org/dc/elements/1.1/" xmlns:rdf="http://www.w3.org/1999/02/22-rdf-syntax-ns#">
 <defs>
  <filter id="filter1404" color-interpolation-filters="sRGB">
   <feFlood flood-color="rgb(0,0,0)" flood-opacity=".96078" result="flood"/>
   <feComposite in="flood" in2="SourceGraphic" operator="out" result="composite1"/>
   <feGaussianBlur in="composite1" result="blur" stdDeviation="2"/>
   <feOffset dx="2" dy="2" result="offset"/>
   <feComposite in="offset" in2="SourceGraphic" operator="in" result="composite2"/>
  </filter>
 </defs>
 <title>tally marks</title>
 <metadata>
  <rdf:RDF>
   <cc:Work rdf:about="">
    <dc:format>image/svg+xml</dc:format>
    <dc:type rdf:resource="http://purl.org/dc/dcmitype/StillImage"/>
    <dc:title>tally marks</dc:title>
    <cc:license rdf:resource="http://creativecommons.org/licenses/by/4.0/"/>
    <dc:creator>
     <cc:Agent>
      <dc:title>Magicon</dc:title>
     </cc:Agent>
    </dc:creator>
    <dc:publisher>
     <cc:Agent>
      <dc:title>Noun Project</dc:title>
     </cc:Agent>
    </dc:publisher>
    <dc:description>tally marks by Magicon from the Noun Project</dc:description>
   </cc:Work>
   <cc:License rdf:about="http://creativecommons.org/licenses/by/4.0/">
    <cc:permits rdf:resource="http://creativecommons.org/ns#Reproduction"/>
    <cc:permits rdf:resource="http://creativecommons.org/ns#Distribution"/>
    <cc:requires rdf:resource="http://creativecommons.org/ns#Notice"/>
    <cc:requires rdf:resource="http://creativecommons.org/ns#Attribution"/>
    <cc:permits rdf:resource="http://creativecommons.org/ns#DerivativeWorks"/>
   </cc:License>
  </rdf:RDF>
 </metadata>
 <g transform="matrix(3.5733 0 0 3.5733 -1.0223e-5 -1.0223e-5)">
  <circle cx="71.642" cy="71.642" r="59.702" fill="#757de8" filter="url(#filter1404)" stroke="#ff7961" stroke-width="3"/>
  <g transform="translate(21.484 21.647)">
   <path d="m11.213 56.765c0.08076 6.9535 0.14871 8.1555 0.10506 10.449-1.0914 0.06813-1.4997 0.07135-2.9072 0.1799-0.86345 0.06659-2.5719 0.11273-3.1782 0.73447-0.79397 0.8141 0.66044 2.4612 1.1096 3.1336 0.86624 1.2968 1.7717 1.8134 4.8722 1.7865-0.02732 1.5481-0.07102 2.6283-0.09019 5.184-0.03169 4.2259 1.4355 9.0514 2.7887 5.9516 1.2688-2.9064 1.7141-7.0113 2.1439-11.436 1.3785-0.13707 2.4764-0.23796 3.7031-0.39002-0.02975 1.6306-0.08288 2.9896-0.10506 5.8739-0.03252 4.2259 1.4438 9.0551 2.7887 5.9516 1.3517-3.1193 1.7947-7.5645 2.2188-12.338 1.2161-0.1516 2.4289-0.31087 3.6431-0.47974-0.03169 1.7203-0.09284 3.4822-0.11994 6.866-0.03384 4.2259 1.4385 9.0594 2.7733 5.9516 1.457-3.3921 1.9237-8.3589 2.3387-13.567 1.2118-0.19861 2.3939-0.41209 3.5529-0.62989-0.03551 1.7937-0.09912 4.0358-0.1348 8.2466-0.03578 4.2259 1.4511 9.0648 2.7733 5.9516 1.6004-3.7682 2.059-9.3486 2.4438-15.127 1.8134-0.43224 3.5357-0.65889 4.9475-1.2747 3.3363-1.4551-0.20533-2.8722-4.7374-2.9072 0.21856-7.1874-0.05735-7.3639-2.0537-9.6547-0.55298-0.63451-1.5119-1.2134-2.4166-0.82806-0.90463 0.38539-0.88959 1.7561-0.88162 2.3723 0.06546 5.0612 0.12186 6.8329 0.11994 8.3805-1.4287 0.12377-2.165 0.18374-3.3131 0.28496 0.01824-0.39914 0.04452-0.80548 0.05998-1.1993 0.27625-7.0483-0.07814-6.6805-2.0988-9.0099-0.55152-0.63577-1.5494-1.2134-2.454-0.82806s-0.85251 1.7561-0.84417 2.3723c0.0785 5.8005 0.1348 7.4095 0.11993 9.1294-1.3615 0.12329-2.4351 0.21636-3.3433 0.29983 0.03308-0.6582 0.06491-1.3193 0.09019-1.964 0.27647-7.0483-0.07814-6.6805-2.0988-9.0099-0.55152-0.63577-1.4745-1.2134-2.3779-0.82766-0.90338 0.38579-0.9141 1.7557-0.90545 2.3719 0.09115 6.4947 0.15303 7.8835 0.11994 9.8945-0.85345 0.06381-2.1003 0.14104-3.3869 0.225 0.04896-0.89327 0.08578-1.7822 0.11994-2.6534 0.27576-7.0334-0.06352-6.6818-2.084-9.0099-0.55511-0.63962-1.5369-1.0671-2.3701-0.91533-1.0509 0.19147-0.94356 1.4123-0.93142 2.4577z"/>
   <path d="m11.213 17.318c0.08076 6.9535 0.14871 8.1555 0.10506 10.449-1.0914 0.06813-1.4997 0.07135-2.9072 0.1799-0.86345 0.06659-2.5719 0.11273-3.1782 0.73447-0.79397 0.8141 0.66044 2.4612 1.1096 3.1336 0.86624 1.2968 1.7717 1.8134 4.8722 1.7865-0.02732 1.5481-0.07102 2.6283-0.09019 5.184-0.03169 4.2259 1.4355 9.0514 2.7887 5.9516 1.2688-2.9064 1.7141-7.0113 2.1439-11.436 1.3785-0.13707 2.4764-0.23796 3.7031-0.39002-0.02975 1.6306-0.08288 2.9896-0.10506 5.8739-0.03252 4.2259 1.4438 9.0551 2.7887 5.9516 1.3517-3.1193 1.7947-7.5645 2.2188-12.338 1.2161-0.1516 2.4289-0.31087 3.6431-0.47974-0.03169 1.7203-0.09284 3.4822-0.11994 6.866-0.03384 4.2259 1.4385 9.0594 2.7733 5.9516 1.457-3.3921 1.9237-8.3589 2.3387-13.567 1.2118-0.19861 2.3939-0.41209 3.5529-0.62989-0.03551 1.7937-0.09912 4.0358-0.1348 8.2466-0.03578 4.2259 1.4511 9.0648 2.7733 5.9516 1.6004-3.7682 2.059-9.3486 2.4438-15.127 1.8134-0.43224 3.5357-0.65889 4.9475-1.2747 3.3363-1.4551-0.20533-2.8722-4.7374-2.9072 0.21856-7.1874-0.05735-7.3639-2.0537-9.6547-0.55298-0.63451-1.5119-1.2134-2.4166-0.82806-0.90463 0.38539-0.88959 1.7561-0.88162 2.3723 0.06546 5.0612 0.12186 6.8329 0.11994 8.3805-1.4287 0.12377-2.165 0.18374-3.3131 0.28496 0.01824-0.39914 0.04452-0.80548 0.05998-1.1993 0.27625-7.0483-0.07814-6.6805-2.0988-9.0099-0.55152-0.63577-1.5494-1.2134-2.454-0.82806s-0.85251 1.7561-0.84417 2.3723c0.0785 5.8005 0.1348 7.4095 0.11993 9.1294-1.3615 0.12329-2.4351 0.21636-3.3433 0.29983 0.03308-0.6582 0.06491-1.3193 0.09019-1.964 0.27647-7.0483-0.07814-6.6805-2.0988-9.0099-0.55152-0.63577-1.4745-1.2134-2.3779-0.82766-0.90338 0.38579-0.9141 1.7557-0.90545 2.3719 0.09115 6.4947 0.15303 7.8835 0.11994 9.8945-0.85345 0.06381-2.1003 0.14104-3.3869 0.225 0.04896-0.89327 0.08578-1.7822 0.11994-2.6534 0.27576-7.0334-0.06352-6.6818-2.084-9.0099-0.55511-0.63962-1.5369-1.0671-2.3701-0.91533-1.0509 0.19147-0.94356 1.4123-0.93142 2.4577z"/>
   <path d="m58.018 17.318c0.08076 6.9535 0.14871 8.1555 0.10506 10.449-1.0914 0.06813-1.4997 0.07135-2.9072 0.1799-0.86345 0.06659-2.5719 0.11273-3.1782 0.73447-0.79397 0.8141 0.66044 2.4612 1.1096 3.1336 0.86624 1.2968 1.7717 1.8134 4.8722 1.7865-0.02732 1.5481-0.07102 2.6283-0.09019 5.184-0.03169 4.2259 1.4355 9.0514 2.7887 5.9516 1.2688-2.9064 1.7141-7.0113 2.1439-11.436 1.3785-0.13707 2.4764-0.23796 3.7031-0.39002-0.02975 1.6306-0.08288 2.9896-0.10506 5.8739-0.03252 4.2259 1.4438 9.0551 2.7887 5.9516 1.3517-3.1193 1.7947-7.5645 2.2188-12.338 1.2161-0.1516 2.4289-0.31087 3.6431-0.47974-0.03169 1.7203-0.09284 3.4822-0.11994 6.866-0.03384 4.2259 1.4385 9.0594 2.7733 5.9516 1.457-3.3921 1.9237-8.3589 2.3387-13.567 1.2118-0.19861 2.3939-0.41209 3.5529-0.62989-0.03551 1.7937-0.09912 4.0358-0.1348 8.2466-0.03578 4.2259 1.4511 9.0648 2.7733 5.9516 1.6004-3.7682 2.059-9.3486 2.4438-15.127 1.8134-0.43224 3.5357-0.65889 4.9475-1.2747 3.3363-1.4551-0.20533-2.8722-4.7374-2.9072 0.21856-7.1874-0.05735-7.3639-2.0537-9.6547-0.55298-0.63451-1.5119-1.2134-2.4166-0.82806-0.90463 0.38539-0.88959 1.7561-0.88162 2.3723 0.06546 5.0612 0.12186 6.8329 0.11994 8.3805-1.4287 0.12377-2.165 0.18374-3.3131 0.28496 0.01824-0.39914 0.04452-0.80548 0.05998-1.1993 0.27625-7.0483-0.07814-6.6805-2.0988-9.0099-0.55152-0.63577-1.5494-1.2134-2.454-0.82806s-0.85251 1.7561-0.84417 2.3723c0.0785 5.8005 0.1348 7.4095 0.11993 9.1294-1.3615 0.12329-2.4351 0.21636-3.3433 0.29983 0.03308-0.6582 0.06491-1.3193 0.09019-1.964 0.27647-7.0483-0.07814-6.6805-2.0988-9.0099-0.55152-0.63577-1.4745-1.2134-2.3779-0.82766-0.90338 0.38579-0.9141 1.7557-0.90545 2.3719 0.09115 6.4947 0.15303 7.8835 0.11994 9.8945-0.85345 0.06381-2.1003 0.14104-3.3869 0.225 0.04896-0.89327 0.08578-1.7822 0.11994-2.6534 0.27576-7.0334-0.06352-6.6818-2.084-9.0099-0.55511-0.63962-1.5369-1.0671-2.3701-0.91533-1.0509 0.19147-0.94356 1.4123-0.93142 2.4577z"/>
   <path d="m58.018 56.765c0.0996 6.9533 0.14872 8.1555 0.06141 12.994-0.08731 4.8381-0.13099 5.9184-0.15016 8.474-0.03171 4.2259 1.4355 9.0514 2.7887 5.9516 1.2688-2.9064 1.9689-7.0113 2.5925-16.998 0.62361-9.9869 0.02955-9.6353-1.9909-11.963-0.55511-0.63962-1.5981-1.2889-2.5054-0.90416s-0.80495 1.8303-0.79612 2.4465z"/>
   <path d="m66.738 56.765c0.0996 6.9533 0.14872 8.1555 0.06141 12.994-0.08731 4.8381-0.13099 5.9184-0.15016 8.474-0.03171 4.2259 1.4355 9.0514 2.7887 5.9516 1.2688-2.9064 1.9689-7.0113 2.5925-16.998s0.02954-9.6353-1.9909-11.963c-0.55511-0.63962-1.5981-1.2514-2.5054-0.86671-0.90729 0.38472-0.80495 1.7928-0.79613 2.4091z"/>
  </g>
 </g>
</svg>
